<?xml version="1.0" standalone="no"?>
<!DOCTYPE svg PUBLIC "-//W3C//DTD SVG 20010904//EN"
 "http://www.w3.org/TR/2001/REC-SVG-20010904/DTD/svg10.dtd">
<svg version="1.0" xmlns="http://www.w3.org/2000/svg"
 width="260.000000pt" height="260.000000pt" viewBox="0 0 260.000000 260.000000"
 preserveAspectRatio="xMidYMid meet">
<metadata>
Created by potrace 1.11, written by Peter Selinger 2001-2013
</metadata>
<g transform="translate(0.000000,260.000000) scale(0.100000,-0.100000)"
fill="#000000" stroke="none">
<path d="M0 1300 l0 -1300 1300 0 1300 0 0 1300 0 1300 -1300 0 -1300 0 0
-1300z m1943 484 c33 -9 61 -23 64 -30 2 -7 -4 -33 -15 -58 l-20 -45 -51 20
c-173 65 -364 34 -457 -75 -67 -78 -96 -211 -75 -344 19 -123 70 -199 166
-250 47 -25 58 -27 185 -27 74 0 143 3 153 7 15 7 17 23 17 143 l0 135 -100 0
-100 0 0 55 0 56 158 -3 157 -3 3 -227 2 -227 -52 -15 c-117 -34 -278 -45
-378 -26 -123 23 -236 104 -288 206 -51 101 -68 288 -37 409 41 154 151 266
306 310 73 20 281 14 362 -11z m-798 -39 l0 -50 -142 -3 -143 -3 -2 -407 -3
-407 -55 0 -55 0 -3 407 -2 407 -143 3 -142 3 -3 53 -3 52 348 -2 348 -3 0
-50z"/>
</g>
</svg>
