<svg xmlns="http://www.w3.org/2000/svg" xmlns:xlink="http://www.w3.org/1999/xlink" version="1.1" x="0px" y="0px" viewBox="0 0 100 100" style="enable-background:new 0 0 100 100;" xml:space="preserve"><path d="M57,36c-1.4,0-2.9,0.6-4,1.5c-0.3,0.2-0.5,0.5-0.7,0.8c0,0,0,0,0,0l-20,20C32.1,58.5,32,58.8,32,59  c0,0.1,0.1,1.9,1.4,3.2l-1.1,1.1C32.1,63.5,32,63.7,32,64c0,1.9,1.2,5,9,5c0.3,0,0.5-0.1,0.7-0.3l19-19c0.4-0.3,0.7-0.6,1-1l0,0  c0.1-0.1,0.2-0.2,0.2-0.3c0.7-1.1,1.1-2.6,1.1-4.4C63,40,60.9,36,57,36z M51,42.4c0.1,1.2,0.5,2.3,1.3,3.1c0.7,0.7,1.6,1.1,2.5,1.3  L53,48.6c-1.6-0.6-1.9-1.5-2.1-1.9c-0.1-0.3-0.4-0.5-0.7-0.6c-0.3-0.1-0.7,0-0.9,0.3L34.8,60.8c-0.5-0.4-0.7-1-0.8-1.4L51,42.4z   M40.6,67c-3.9-0.1-6.2-1-6.6-2.6l15.7-15.7c0.7,1,1.8,1.6,3.2,2c0.1,0,0.1,0,0.2,0C54,50.9,54.9,51,56,51c0.2,0,0.4,0,0.6,0  L40.6,67z M60.2,47.4l-0.8,0.8C58.6,48.8,57.5,49,56,49c-0.2,0-0.4,0-0.6,0l2.3-2.3c0.3-0.3,0.4-0.7,0.2-1.1c-0.2-0.4-0.6-0.6-1-0.6  c0,0-2.1,0.1-3.2-1c-0.5-0.5-0.8-1.1-0.8-2c0-1.5,0.7-2.4,1.3-3c0.7-0.6,1.8-1,2.7-1c2.9,0,4,3.7,4,6C61,45.5,60.8,46.6,60.2,47.4z"/><path d="M70.7,20.3c-0.4-0.4-1-0.4-1.4,0l-4,4c-0.4,0.4-0.4,1,0,1.4l0.3,0.3l-3.8,3.8C59.7,28.6,57.4,28,55,28  c-4.6,0-8.1,3.3-9.8,5.3L21.9,59.4c-1.3,1.5-1.2,3.7,0.1,5l13.4,13.4c0.7,0.7,1.7,1.1,2.7,1.1c0.9,0,1.7-0.3,2.4-0.9l26.6-22.8  c3.3-2.8,4.8-5.8,4.8-9.3v-1c0-2.4-0.6-4.7-1.8-6.8l3.8-3.8l0.3,0.3c0.2,0.2,0.5,0.3,0.7,0.3s0.5-0.1,0.7-0.3l4-4  c0.4-0.4,0.4-1,0-1.4L70.7,20.3z M68.3,37.3c-0.3,0.3-0.4,0.8-0.1,1.2c1.2,2,1.9,4.2,1.9,6.5v1c0,2.9-1.4,5.4-4.1,7.8L39.3,76.6  c-0.7,0.6-1.7,0.6-2.4-0.1L23.5,63.1c-0.6-0.6-0.7-1.6-0.1-2.3l23.3-26.1c1.5-1.7,4.5-4.6,8.3-4.6c2.3,0,4.5,0.6,6.5,1.9  c0.4,0.2,0.9,0.2,1.2-0.1l4.3-4.3l5.6,5.6L68.3,37.3z M75,32.6l-0.3-0.3l-7-7L67.4,25l2.6-2.6l7.6,7.6L75,32.6z"/></svg>